<svg height="64px" style="shape-rendering:geometricPrecision; text-rendering:geometricPrecision; image-rendering:optimizeQuality; fill-rule:evenodd; clip-rule:evenodd" version="1.1" viewBox="0 0 64 64" width="64px" xml:space="preserve" xmlns="http://www.w3.org/2000/svg" xmlns:xlink="http://www.w3.org/1999/xlink">
  <defs>
    <style type="text/css">
      .fil1 {fill:#1AB5ED; stroke: #FFF; stroke-width: 2px;}
      .str0 {stroke:#FFC106; stroke-width:2.5; stroke-linecap:round;}
      .fil0 {fill:#FFC106;}
      .fil2 {fill:#FFC106; fill-rule:nonzero;}
    </style>
  </defs>
  <g id="Layer_x0020_1">
    <g id="_743750784">
      <!-- Sun -->
      <circle class="fil0" r="22.97" transform="matrix(0.543121 0.145529 -0.145529 0.543121 32.0002 31.9993)" />
      
      <!-- the rays -->
      <g class="rays">
        <path class="fil2 str0" d="M32 12.4c0,1.52 0,2 0,2m-9.8 0.63c0.76,1.32 1,1.73 1,1.73m-8.17 5.44c1.32,0.76 1.73,1 1.73,1m-4.36 8.8c1.53,0 2,0 2,0m0.63 9.8c1.32,-0.76 1.73,-1 1.73,-1m5.44 8.17c0.76,-1.32 1,-1.73 1,-1.73m8.8 4.36c0,-1.53 0,-2 0,-2m9.8 -0.63c-0.76,-1.32 -1,-1.73 -1,-1.73m8.17 -5.44c-1.32,-0.76 -1.73,-1 -1.73,-1m4.36 -8.8c-1.53,0 -2,0 -2,0m-0.63 -9.8c-1.32,0.76 -1.73,1 -1.73,1m-5.44 -8.17c-0.76,1.32 -1,1.73 -1,1.73">
          <animateTransform attributeName="transform" type="rotate" from="0 32 32" to="360 32 32" dur="10s" repeatCount="indefinite"/>
        </path>
      </g>
      
      <!-- the cloud -->
      <path class="fil1" d="M12.29 53.71l-0.1 0c-3.85,0 -6.97,-3.11 -6.97,-6.96 0,-3.81 3.05,-6.9 6.85,-6.97 0.45,-6.8 6.1,-12.17 13.02,-12.17 5.58,0 10.34,3.5 12.2,8.43 0.52,-0.1 1.06,-0.14 1.61,-0.14 4.52,0 8.27,3.38 8.83,7.75 2.78,0 5.03,2.26 5.03,5.03 0,2.74 -2.19,4.97 -4.91,5.03l-0.12 0 -0.07 0 -8.67 0 -0.09 0 -0.12 0 -13.56 0 -0.13 0 -0.14 0 -12.66 0z"/>
      <animateTransform attributeName="transform" type="translate" values="0,0; 5,0; 0,0; -5,0; 0,0" dur="6s" repeatCount="indefinite"/>
    </g>
  </g>
</svg>
