<?xml version="1.0" ?>
<!DOCTYPE svg PUBLIC '-//W3C//DTD SVG 1.1//EN' 'http://www.w3.org/Graphics/SVG/1.1/DTD/svg11.dtd'>
<svg height="64px" style="shape-rendering:geometricPrecision; text-rendering:geometricPrecision; image-rendering:optimizeQuality; fill-rule:evenodd; clip-rule:evenodd" version="1.1" viewBox="0 0 64 64" width="64px" xml:space="preserve" xmlns="http://www.w3.org/2000/svg" xmlns:xlink="http://www.w3.org/1999/xlink">
  <defs>
    <style type="text/css">
      .fil2 {fill:#0E6096; stroke: #FFF; stroke-width: 2px;}
      .fil3 {fill:#1AB5ED; stroke: #FFF; stroke-width: 2px;}
      .fil0 {fill:#FFC106}
      .str0 {stroke:#FFC106; stroke-width:2.5; stroke-linecap:round;}
      .fil1 {fill:#FFC106; fill-rule:nonzero}
    </style>
  </defs>
  <g id="Layer_x0020_1">
    <!-- Sun -->
    <g id="sun">
      <circle class="fil0" r="22.97" transform="matrix(0.543121 0.145529 -0.145529 0.543121 32.0002 31.9993)" />
      <animateTransform attributeName="transform" type="translate" values="0,0; 5,-5; 10,-10; 5,-5; 0,0" dur="6s" repeatCount="indefinite"/>
      <!-- the rays -->
      <g class="rays">
        <path class="fil2 str0" d="M32 12.4c0,1.52 0,2 0,2m-9.8 0.63c0.76,1.32 1,1.73 1,1.73m-8.17 5.44c1.32,0.76 1.73,1 1.73,1m-4.36 8.8c1.53,0 2,0 2,0m0.63 9.8c1.32,-0.76 1.73,-1 1.73,-1m5.44 8.17c0.76,-1.32 1,-1.73 1,-1.73m8.8 4.36c0,-1.53 0,-2 0,-2m9.8 -0.63c-0.76,-1.32 -1,-1.73 -1,-1.73m8.17 -5.44c-1.32,-0.76 -1.73,-1 -1.73,-1m4.36 -8.8c-1.53,0 -2,0 -2,0m-0.63 -9.8c-1.32,0.76 -1.73,1 -1.73,1m-5.44 -8.17c-0.76,1.32 -1,1.73 -1,1.73">
    </g>
    </g>    
      <g id="smallCloud">
  <path class="fil2" d="M8.75 41.28c-3.41,0 -6.15,-2.76 -6.15,-6.15 0,-3.37 2.7,-6.09 6.05,-6.15 0.41,-6 5.4,-10.74 11.49,-10.74 4.92,0 9.12,3.09 10.77,7.45 0.47,-0.09 0.93,-0.12 1.42,-0.12 4.01,0 7.3,2.98 7.8,6.84 2.46,0 4.44,1.97 4.44,4.44 0,2.43 -1.92,4.4 -4.32,4.44 -10.5,0.15 -20.99,0.01 -31.49,0.01z"/>
  <animateTransform attributeName="transform" type="translate" values="5,0; 0,0; 5,0" dur="6s" repeatCount="indefinite"/>
</g>


    <!-- Big Light Cloud -->
    <g id="bigCloud">
      <path class="fil3" d="M11.67 55.25c-4.53,0 -8.2,-3.68 -8.2,-8.2 0,-4.48 3.59,-8.13 8.06,-8.21 0.53,-8 7.19,-14.32 15.33,-14.32 6.57,0 12.17,4.12 14.37,9.92 0.61,-0.11 1.24,-0.17 1.88,-0.17 5.33,0 9.74,3.98 10.4,9.13 3.27,0 5.92,2.65 5.92,5.92 0,3.23 -2.57,5.85 -5.77,5.92 -14,0.2 -27.99,0.01 -41.99,0.01z"/>
      <animateTransform attributeName="transform" type="translate" values="-5,0; 0,0; -5,0" dur="6s" repeatCount="indefinite"/>
    </g>
  </g>
</svg>
