<?xml version="1.0" ?><!DOCTYPE svg  PUBLIC '-//W3C//DTD SVG 1.1//EN'  'http://www.w3.org/Graphics/SVG/1.1/DTD/svg11.dtd'><svg height="64px" style="shape-rendering:geometricPrecision; text-rendering:geometricPrecision; image-rendering:optimizeQuality; fill-rule:evenodd; clip-rule:evenodd" version="1.1" viewBox="0 0 64 64" width="64px" xml:space="preserve" xmlns="http://www.w3.org/2000/svg" xmlns:xlink="http://www.w3.org/1999/xlink"><defs><style type="text/css">
  .fil3 {fill:#E62129}
  .fil0 {fill:#0E6096; stroke: #FFF; stroke-width: 2px;}
  .fil1 {fill:#1AB5ED; stroke: #FFF; stroke-width: 2px;}
  .fil2 {fill:#FFF;fill-rule:nonzero}
 </style>
 </defs>
 <g id="Layer_x0020_1">
   <g id="_745054240">
     <!-- Small Dark Cloud -->
     <path class="fil0" d="M8.75 41.28c-3.41,0 -6.15,-2.76 -6.15,-6.15 0,-3.37 2.7,-6.09 6.05,-6.15 0.41,-6 5.4,-10.74 11.49,-10.74 4.92,0 9.12,3.09 10.77,7.45 0.47,-0.09 0.93,-0.12 1.42,-0.12 4.01,0 7.3,2.98 7.8,6.84 2.46,0 4.44,1.97 4.44,4.44 0,2.43 -1.92,4.4 -4.32,4.44 -10.5,0.15 -20.99,0.01 -31.49,0.01z"/>
     <!-- Big Light Cloud -->
     <path class="fil1" d="M12.29 53.71l-0.1 0c-3.85,0 -6.97,-3.11 -6.97,-6.96 0,-3.81 3.05,-6.9 6.85,-6.97 0.45,-6.8 6.1,-12.17 13.02,-12.17 5.58,0 10.34,3.5 12.2,8.43 0.52,-0.1 1.06,-0.14 1.61,-0.14 4.52,0 8.27,3.38 8.83,7.75 2.78,0 5.03,2.26 5.03,5.03 0,2.74 -2.19,4.97 -4.91,5.03l-0.12 0 -0.07 0 -8.67 0 -0.09 0 -0.12 0 -13.56 0 -0.13 0 -0.14 0 -12.66 0z"/>
     <!-- Lines drops -->
     <path class="fil2" d="M18.94 56.28c0.24,-0.64 0.96,-0.97 1.6,-0.73 0.64,0.24 0.97,0.96 0.73,1.6l-2.79 7.52c-0.24,0.64 -0.96,0.97 -1.6,0.73 -0.64,-0.24 -0.97,-0.96 -0.73,-1.6l2.79 -7.52zm17.03">
       <animate
           attributeName="cy"
           values="51.1; 60; 60; 51.1" 
           dur="1.5s" 
           begin="0.375s" 
           repeatCount="indefinite"/>
       <animate
           attributeName="opacity"
           values="1; 1; 0;0; 0"
           dur="1.5s"
           begin="0.375s"
           repeatCount="indefinite"/>
     </path>
     <path class="fil2" d="M29.94 56.28c0.24,-0.64 0.96,-0.97 1.6,-0.73 0.65,0.24 0.98,0.96 0.74,1.6l-2.8 7.52c-0.24,0.64 -0.95,0.97 -1.6,0.73 -0.64,-0.24 -0.97,-0.96 -0.73,-1.6l2.79 -7.52zm8.05">
       <animate
           attributeName="cy"
           values="51.1; 60; 60; 51.1" 
           dur="1.5s" 
           begin="0.75s" 
           repeatCount="indefinite"/>
       <animate
           attributeName="opacity"
           values="1; 1; 0;0; 0"
           dur="1.5s"
           begin="0.75s"
           repeatCount="indefinite"/>
     </path>
     <path class="fil2" d="M37.94 56.28c0.24,-0.64 0.96,-0.96 1.6,-0.72 0.65,0.24 0.97,0.96 0.73,1.6l-1.52 4.05c-0.25,0.64 -0.97,0.97 -1.61,0.72 -0.64,-0.24 -0.97,-0.96 -0.73,-1.6l1.53 -4.05zm7.46">
       <animate
           attributeName="cy"
           values="51.1; 60; 60; 51.1" 
           dur="1.5s" 
           begin="0s" 
           repeatCount="indefinite"/>
       <animate
           attributeName="opacity"
           values="1; 1; 0;0; 0"
           dur="1.5s"
           begin="0s"
           repeatCount="indefinite"/>
     </path>
     <path class="fil2" d="M45.94 56.28c0.24,-0.64 0.96,-0.97 1.6,-0.73 0.64,0.24 0.97,0.96 0.73,1.6l-2.79 7.52c-0.24,0.64 -0.96,0.97 -1.6,0.73 -0.65,-0.24 -0.97,-0.96 -0.73,-1.6l2.79 -7.52z">
       <animate
           attributeName="cy"
           values="51.1; 60; 60; 51.1" 
           dur="1.5s" 
           begin="1.125s" 
           repeatCount="indefinite"/>
       <animate
           attributeName="opacity"
           values="1; 1; 0;0; 0"
           dur="1.5s"
           begin="1.125s"
           repeatCount="indefinite"/>
     </path>
     <!-- Lightning -->
     <path class="fil3" d="M25.6 22.33c0.28,-0.63 1.02,-0.91 1.65,-0.63 0.63,0.29 0.91,1.03 0.63,1.65l-5.6 12.4 8.41 0c0.69,0 1.25,0.56 1.25,1.25 0,0.2 -0.04,0.39 -0.13,0.56l-6.78 17.64c-0.25,0.64 -0.97,0.96 -1.61,0.72 -0.64,-0.24 -0.96,-0.97 -0.72,-1.61l6.18 -16.06 -8.54 0c-0.17,0 -0.34,-0.04 -0.51,-0.11 -0.63,-0.28 -0.91,-1.02 -0.63,-1.65l6.4 -14.16z">
       <animate 
   attributeName="opacity" 
   values="1;0;1;0;0" 
   dur="3s" 
   repeatCount="indefinite"
   keyTimes="0;0.2;0.4;0.8;1"/>
     </path>
   </g></g>
     
   </svg>